<svg width="100" height="100" viewBox="0 0 100 100" fill="none" xmlns="http://www.w3.org/2000/svg">
<rect width="100" height="100" rx="23" fill="#2C2E36"/>
<g clip-path="url(#clip0)">
<path d="M37.5024 87C44.401 87 49.9999 81.4747 49.9999 74.6667V62.3334H37.5024C30.6038 62.3334 25.0049 67.8587 25.0049 74.6667C25.0049 81.4747 30.6038 87 37.5024 87Z" fill="#0ACF83"/>
<path d="M25.0049 49.9999C25.0049 43.192 30.6038 37.6666 37.5024 37.6666H49.9999V62.3333H37.5024C30.6038 62.3333 25.0049 56.8079 25.0049 49.9999Z" fill="#A259FF"/>
<path d="M25.0054 25.3333C25.0054 18.5253 30.6043 13 37.5029 13H50.0004V37.6667H37.5029C30.6043 37.6667 25.0054 32.1413 25.0054 25.3333Z" fill="#F24E1E"/>
<path d="M50 13H62.4975C69.3961 13 74.995 18.5253 74.995 25.3333C74.995 32.1413 69.3961 37.6667 62.4975 37.6667H50V13Z" fill="#FF7262"/>
<path d="M74.995 49.9999C74.995 56.8079 69.3961 62.3333 62.4975 62.3333C55.5989 62.3333 50 56.8079 50 49.9999C50 43.192 55.5989 37.6666 62.4975 37.6666C69.3961 37.6666 74.995 43.192 74.995 49.9999Z" fill="#1ABCFE"/>
</g>
<defs>
<clipPath id="clip0">
<rect width="50" height="74" fill="white" transform="translate(25 13)"/>
</clipPath>
</defs>
</svg>
