<svg width="100" height="100" viewBox="0 0 100 100" fill="none" xmlns="http://www.w3.org/2000/svg">
<g clip-path="url(#clip0)">
<rect width="100" height="100" rx="23" fill="#F15132"/>
<path d="M6 24C6 14.6112 13.6112 7 23 7H76C85.3888 7 93 14.6112 93 24V78C93 87.3888 85.3888 95 76 95H23C13.6112 95 6 87.3888 6 78V24Z" fill="white"/>
<path d="M6.49249 9.4456C5.79001 10.4471 5.31928 11.6803 5.14753 12.9286C5.08779 13.3621 5.04345 17.219 5.04401 21.4944L5.0525 29.2754L14.7919 29.2693L24.5312 29.278L24.9049 28.6352C25.1141 28.2765 25.6223 27.6188 26.0408 27.1704C27.7597 25.2721 29.987 24.2558 32.5358 24.2038C34.3223 24.1667 35.72 24.5032 37.3347 25.3555C38.0897 25.7667 38.3064 25.9387 39.2708 26.903C40.1155 27.7478 40.4445 28.1365 40.7435 28.6747L41.1398 29.3549L50.5129 29.3562L59.886 29.3574L60.2223 28.737C60.4913 28.2438 60.7827 27.8925 61.7842 26.891C62.9725 25.7177 63.0622 25.6429 63.974 25.1946C66.2686 24.0513 68.9669 23.8797 71.3588 24.7321C72.7193 25.2256 73.5341 25.7564 74.6928 26.9152C75.844 28.0664 76.3374 28.8139 76.8534 30.2117C77.6983 32.5065 77.5641 35.3319 76.5105 37.4321C75.965 38.5159 75.5689 39.0614 74.6497 39.9807C70.2627 44.3677 62.8029 43.1558 59.9768 37.6093L59.6478 36.9814L50.9623 36.9803L42.2769 36.9791L53.7892 48.4915L65.3016 60.0039L66.1611 59.8022C68.3586 59.2792 70.5861 59.5934 72.6866 60.7224C73.4415 61.1186 73.6808 61.313 74.6376 62.2549C75.8935 63.4959 76.2898 64.1014 76.8206 65.544C77.2767 66.7923 77.4338 67.7267 77.4041 69.0721C77.3595 70.7016 76.9785 72.0843 76.149 73.5417C75.6483 74.4311 73.892 76.1874 72.9727 76.718C70.5661 78.1229 67.6435 78.3991 65.0572 77.4719C61.4169 76.1783 58.9723 72.6874 58.9718 68.7856C58.9717 67.799 59.2181 66.3415 59.5021 65.6389L59.659 65.2727L47.9971 53.6108L36.3353 41.949L35.969 42.1059C34.1677 42.8456 31.1331 42.7705 29.2793 41.948C27.1414 41.006 25.3473 39.3015 24.5099 37.4477L24.2632 36.902L14.6658 36.9008L5.0535 36.8995L5.04938 62.4252C5.05122 76.4774 5.09762 88.3171 5.15748 88.7506C5.40438 90.5819 6.30903 92.2937 7.66208 93.4973C8.94786 94.6336 10.3008 95.2243 12.0499 95.4039C13.657 95.576 87.588 95.5035 88.4176 95.3317C90.1068 94.9732 91.1457 94.4127 92.4013 93.1571C93.1262 92.4322 93.3654 92.1183 93.6792 91.5204C94.1052 90.7207 94.3741 89.9583 94.5459 89.0987C94.6953 88.3812 94.7155 13.9942 94.5733 12.9403C94.4386 11.9536 94.162 11.109 93.6685 10.1821C93.1751 9.24022 91.822 7.84229 90.8727 7.29652C89.8336 6.69095 88.5853 6.33948 87.21 6.2496C86.0365 6.18218 52.7597 6.17781 23.4295 6.2487L11.3505 6.27701L10.4013 6.5983C9.8856 6.7851 9.20545 7.07651 8.89154 7.25586C8.22635 7.65193 6.89604 8.86264 6.49249 9.4456Z" fill="#F15132"/>
</g>
<defs>
<clipPath id="clip0">
<rect width="100" height="100" rx="23" fill="white"/>
</clipPath>
</defs>
</svg>
