<svg width="100" height="100" viewBox="0 0 100 100" fill="none" xmlns="http://www.w3.org/2000/svg">
<g clip-path="url(#clip0)">
<rect width="100" height="100" rx="23" fill="white"/>
<path d="M100 100V-11H83.8843H65L35 100H100Z" fill="#FF4B00"/>
<path d="M0 -5V106H16.1157H35L65 -5H0Z" fill="#FF7816"/>
<g clip-path="url(#clip1)" filter="url(#filter0_d)">
<path d="M71.8126 31.375H37.0781L37.9216 43.0938H70.9691L68.9531 71.4684L49.7031 78L30.2031 71.5L29.8595 62H39.2345L40.7031 64.625L49.7031 67.625L60.0469 64.5781L60.8904 52.4688H29.1564L27 22H72.4688L71.8126 31.375Z" fill="#ECECF1"/>
<g clip-path="url(#clip2)">
<path d="M71.8126 31.375H37.0781L37.9216 43.0938H70.9691L68.9531 71.4684L49.7031 78L30.2031 71.5L29.8595 62H39.2345L40.7031 64.625L49.7031 67.625L60.0469 64.5781L60.8904 52.4688H29.1564L27 22H72.4688L71.8126 31.375Z" fill="black" fill-opacity="0.2"/>
</g>
</g>
</g>
<defs>
<filter id="filter0_d" x="22" y="21" width="56" height="66" filterUnits="userSpaceOnUse" color-interpolation-filters="sRGB">
<feFlood flood-opacity="0" result="BackgroundImageFix"/>
<feColorMatrix in="SourceAlpha" type="matrix" values="0 0 0 0 0 0 0 0 0 0 0 0 0 0 0 0 0 0 127 0"/>
<feOffset dy="4"/>
<feGaussianBlur stdDeviation="2.5"/>
<feColorMatrix type="matrix" values="0 0 0 0 0 0 0 0 0 0 0 0 0 0 0 0 0 0 0.03 0"/>
<feBlend mode="normal" in2="BackgroundImageFix" result="effect1_dropShadow"/>
<feBlend mode="normal" in="SourceGraphic" in2="effect1_dropShadow" result="shape"/>
</filter>
<clipPath id="clip0">
<rect width="100" height="100" rx="23" fill="white"/>
</clipPath>
<clipPath id="clip1">
<rect width="46" height="56" fill="white" transform="translate(27 22)"/>
</clipPath>
<clipPath id="clip2">
<rect width="36.0067" height="63.0135" fill="white" transform="translate(58.7114 17.3538) rotate(15)"/>
</clipPath>
</defs>
</svg>
