<svg width="100" height="100" viewBox="0 0 100 100" fill="none" xmlns="http://www.w3.org/2000/svg">
<rect width="100" height="100" rx="23" fill="white"/>
<path d="M14.6875 10L19.6564 80.0159L50.0311 90L80.4059 80.0159L85.3748 10H14.6875Z" fill="#FF7816"/>
<path d="M85.3749 10L80.406 80.0159L50.0312 90V10H85.3749Z" fill="#FF4B00"/>
<path d="M72.1095 31.25H37.375L38.2185 42.9688H71.266L69.25 71.3434L50.0312 77.7655L30.8125 71.3434L30.1564 61.875H39.5314L39.7188 64.4531L50.0312 67.8748L60.3438 64.4531L61.1873 52.3438H29.4532L27.2969 21.875H72.7656L72.1095 31.25Z" fill="#ECECF1"/>
<path d="M71.266 42.9688L69.25 71.3434L50.0312 77.7655V67.8748L60.3438 64.4531L61.1873 52.3438H50.0312V42.9688H71.266Z" fill="#E2E2E7"/>
<path d="M72.7656 21.875L72.1095 31.25H50.0312V21.875H72.7656Z" fill="#E2E2E7"/>
</svg>
