<svg width="100" height="100" viewBox="0 0 100 100" fill="none" xmlns="http://www.w3.org/2000/svg">
<rect width="100" height="100" rx="23" fill="#F7DF1E"/>
<path d="M26.2938 83.5672L33.9462 78.936C35.4228 81.5536 36.7657 83.7684 39.9872 83.7684C43.0751 83.7684 45.0224 82.5606 45.0224 77.8622V45.9098H54.4196V77.995C54.4196 87.7282 48.7142 92.1586 40.3899 92.1586C32.8724 92.1586 28.5087 88.2653 26.2935 83.5665L26.2938 83.5672ZM59.5239 82.5602L67.1755 78.1301C69.1899 81.4196 71.8079 83.836 76.4392 83.836C80.3333 83.836 82.8161 81.8891 82.8161 79.204C82.8161 75.9821 80.2653 74.8407 75.9692 72.9618L73.6204 71.954C66.8403 69.0684 62.3431 65.4434 62.3431 57.7911C62.3431 50.7426 67.713 45.3723 76.104 45.3723C82.0782 45.3723 86.3743 47.4536 89.4618 52.8907L82.1446 57.5899C80.5333 54.7036 78.7888 53.5625 76.1036 53.5625C73.3513 53.5625 71.606 55.3079 71.606 57.5899C71.606 60.409 73.3513 61.5508 77.3786 63.2961L79.7278 64.3028C87.7161 67.7266 92.2134 71.2169 92.2134 79.07C92.2134 87.5286 85.5681 92.1598 76.6403 92.1598C67.9142 92.1598 62.2755 87.9981 59.5235 82.5606" fill="black"/>
</svg>
