<svg width="100" height="100" viewBox="0 0 100 100" fill="none" xmlns="http://www.w3.org/2000/svg">
<rect width="100" height="100" rx="23" fill="white"/>
<path d="M73.2847 31.363C72.2578 32.1109 67.9044 37.7033 62.5688 45.1263C61.2963 46.8899 60.1242 48.4304 59.9568 48.5531C59.7001 48.7429 59.5996 48.7652 59.3652 48.6536C59.0192 48.4973 58.7959 48.2071 55.5142 43.5524C52.0427 38.6409 52.0985 38.7191 51.6855 38.4735C51.1832 38.1609 50.0446 38.1833 50.0446 38.4958C50.0446 38.5516 51.8529 41.1525 54.0631 44.2668C56.2732 47.3923 58.1262 50.0712 58.182 50.2387C58.3271 50.607 58.2043 50.9531 57.702 51.567C57.5011 51.8237 56.6304 53.0181 55.7709 54.2125C54.9114 55.4069 53.0919 57.9407 51.7301 59.8272C50.3683 61.7248 49.2744 63.2987 49.3079 63.3433C49.3414 63.3768 49.6427 63.4215 49.9665 63.4549C50.7702 63.5219 51.3506 63.2205 51.9199 62.4392C52.1543 62.1266 53.8063 59.7937 55.5811 57.2821C57.356 54.7594 58.9299 52.5939 59.075 52.4488C59.6666 51.8907 59.9456 52.1251 61.62 54.5473C63.1827 56.8022 67.1231 62.1936 67.6812 62.8298C68.0049 63.2094 68.2505 63.3768 68.5295 63.4326C69.0318 63.5219 69.8467 63.2987 69.7686 63.0866C69.6904 62.8968 65.192 56.657 63.1269 53.8776C62.2339 52.6832 61.4191 51.5 61.3075 51.2544C61.0619 50.7186 61.0396 50.2052 61.2405 49.714C61.3298 49.5131 62.5242 47.7271 63.9083 45.7291C67.3017 40.8288 73.9321 31.1063 73.9321 31.0505C73.9321 30.9277 73.7424 31.0282 73.2847 31.363Z" fill="black"/>
<path d="M39.686 38.2502L31.8277 38.306L31.6156 38.5627C31.504 38.7078 31.3812 38.9869 31.3477 39.1766C31.3142 39.3776 31.3031 44.8025 31.3142 51.232L31.3477 62.9414L31.6603 63.2093L31.9728 63.4772L40.1437 63.4548L48.3146 63.4214L48.415 63.1088C48.482 62.9191 48.482 62.6958 48.415 62.4949L48.3146 62.1935L40.8469 62.1377L33.3905 62.0819L33.1784 61.814C33.0667 61.6689 32.9663 61.4456 32.9663 61.3117C32.9663 61.1889 32.9551 58.9899 32.9551 56.4337C32.944 51.3771 32.9328 51.4218 33.5802 51.1985C33.8035 51.1204 36.1029 51.0869 40.5344 51.0981C45.39 51.1092 47.1983 51.0758 47.2876 50.9865C47.4886 50.7855 47.4439 49.9707 47.2318 49.8144C47.0867 49.7139 45.5016 49.6805 40.5902 49.6916C37.0406 49.7028 33.9486 49.6693 33.7142 49.6135C32.944 49.4349 32.9551 49.5019 32.944 44.6016V40.2147L33.29 39.9022L33.6472 39.5785L40.8693 39.5896C47.6113 39.6008 48.0913 39.5896 48.2253 39.411C48.3034 39.2994 48.3704 39.0985 48.3704 38.9534C48.3704 38.652 47.9016 38.1274 47.6783 38.1609C47.6002 38.1832 43.9947 38.2167 39.686 38.2502Z" fill="black"/>
<path d="M10.4517 38.384C10.1614 38.5291 9.91587 39.0649 10.0275 39.3328C10.061 39.4445 10.0945 44.8247 10.0945 51.2878C10.0833 62.852 10.0945 63.0418 10.3066 63.2538C10.5298 63.4771 11.233 63.5552 11.5009 63.3878C11.8581 63.1646 11.8693 62.6511 11.8693 52.0022C11.8581 42.9606 11.8805 41.3086 12.0144 41.1746C12.1595 41.0407 12.3604 41.2751 13.5102 42.849C15.3185 45.3159 17.0598 47.8274 20.7434 53.3193C26.012 61.1776 28.278 64.3366 31.0016 67.7076C31.6267 68.4779 32.1625 69.1476 32.2072 69.2146C32.2518 69.2815 32.3076 69.3039 32.3523 69.2704C32.3858 69.2369 32.2407 68.7569 32.0397 68.21C31.716 67.3393 30.8342 65.9775 25.2084 57.561C17.3054 45.7289 12.6283 38.8975 12.1818 38.5291C11.9251 38.3059 11.7353 38.2501 11.2777 38.2612C10.954 38.2612 10.5856 38.3171 10.4517 38.384Z" fill="black"/>
<path d="M70.7844 38.3729C70.4942 38.5404 70.5054 39.3217 70.7956 39.478C70.9407 39.545 72.4253 39.5896 74.8475 39.5896C78.2074 39.5896 78.7097 39.612 78.9441 39.7682C79.5358 40.1924 79.5246 39.8352 79.5134 51.846C79.5134 57.9629 79.5023 63.0307 79.5134 63.0977C79.5134 63.2651 80.0157 63.4772 80.3953 63.4772C80.5739 63.4772 80.8194 63.3879 80.9534 63.2762L81.1989 63.0865L81.1878 52.2701C81.1878 46.3317 81.1543 41.4203 81.1208 41.3533C80.9757 41.1301 81.2213 40.1031 81.478 39.8464L81.7347 39.5896H85.7532C89.6154 39.5896 89.7828 39.5785 89.8945 39.3776C90.0619 39.0427 90.0284 38.6408 89.8052 38.4399C89.6154 38.2613 88.8005 38.2502 80.2836 38.2502C74.1666 38.2613 70.9072 38.2948 70.7844 38.3729Z" fill="black"/>
<path d="M32.6313 69.7169C32.6313 69.7839 32.676 69.862 32.743 69.8955C32.8099 69.929 32.8211 69.8843 32.7876 69.795C32.7095 69.5941 32.6313 69.5606 32.6313 69.7169Z" fill="black"/>
</svg>
