<svg width="100" height="100" viewBox="0 0 100 100" fill="none" xmlns="http://www.w3.org/2000/svg">
<rect width="100" height="100" rx="23" fill="#53C1DE"/>
<g clip-path="url(#clip0)">
<path d="M10.2358 49.8579C10.2358 55.8623 16.099 61.4674 25.3424 64.627C23.4965 73.9194 25.0118 81.4094 30.0722 84.3277C35.2735 87.3276 43.0226 85.2511 50.3776 78.8217C57.547 84.9915 64.7926 87.4195 69.8487 84.4927C75.0453 81.4844 76.6256 73.4866 74.7288 63.9039C84.3565 60.7209 89.7419 55.9414 89.7419 49.8579C89.7419 43.9928 83.8681 38.9189 74.7491 35.7797C76.7912 25.801 75.061 18.4929 69.7909 15.454C64.7101 12.5241 57.3801 15.0777 50.1054 21.4087C42.537 14.689 35.2795 12.6375 30.015 15.6849C24.939 18.6232 23.4906 26.2495 25.3424 35.7138C16.4109 38.8277 10.2358 44.0165 10.2358 49.8579Z" fill="white"/>
<path d="M72.8179 38.8971C72.0663 38.6393 71.3084 38.4005 70.5449 38.1809C70.6715 37.6664 70.7886 37.1495 70.8961 36.6307C72.6166 28.2785 71.4917 21.5501 67.65 19.3351C63.9667 17.2109 57.9426 19.4258 51.8584 24.7202C51.2589 25.2431 50.6727 25.7811 50.1004 26.3336C49.7171 25.9662 49.3271 25.606 48.9304 25.253C42.5541 19.5914 36.1628 17.2059 32.3252 19.4273C28.6453 21.5576 27.5554 27.8832 29.1044 35.7985C29.2585 36.5824 29.4325 37.3622 29.6262 38.1372C28.7219 38.394 27.8485 38.6678 27.0129 38.959C19.5376 41.5651 14.7634 45.65 14.7634 49.8867C14.7634 54.2627 19.8882 58.6519 27.6748 61.313C28.3061 61.5278 28.9428 61.7268 29.5841 61.9099C29.3757 62.7448 29.1908 63.5854 29.0294 64.4307C27.5526 72.2085 28.706 78.3842 32.3761 80.5013C36.1669 82.6871 42.5291 80.4404 48.7245 75.025C49.2142 74.5969 49.7057 74.1428 50.1979 73.6669C50.8178 74.265 51.4543 74.8457 52.1066 75.4084C58.1076 80.5722 64.0342 82.6575 67.7012 80.5347C71.4886 78.3423 72.7191 71.7079 71.1211 63.6361C70.9992 63.0195 70.857 62.3899 70.6977 61.7487C71.1445 61.6168 71.5829 61.4805 72.0107 61.3387C80.1054 58.6569 85.3717 54.3212 85.3717 49.8867C85.3717 45.6347 80.4438 41.5223 72.8179 38.8971Z" fill="#53C1DE"/>
<path d="M71.062 58.4757C70.6761 58.6035 70.2798 58.7269 69.8761 58.8466C68.9824 56.0176 67.7762 53.0093 66.3006 49.9016C67.709 46.8674 68.8683 43.8978 69.7371 41.087C70.4592 41.2964 71.1604 41.5167 71.836 41.7495C78.3701 43.9985 82.3556 47.3243 82.3556 49.8867C82.3556 52.6162 78.0511 56.1598 71.0623 58.4757H71.062ZM68.1621 64.222C68.8687 67.7912 68.9696 71.0182 68.5015 73.541C68.0809 75.8077 67.2353 77.3189 66.1897 77.9242C63.9645 79.2123 59.2056 77.538 54.074 73.1219C53.4855 72.6157 52.8928 72.0751 52.2984 71.5032C54.288 69.3271 56.2764 66.7972 58.2169 63.9879C61.6305 63.6851 64.8554 63.1898 67.7799 62.5139C67.9237 63.0951 68.0518 63.6648 68.1621 64.222ZM38.8352 77.7017C36.6613 78.4695 34.9298 78.4914 33.8832 77.888C31.6558 76.6036 30.7302 71.6445 31.993 64.9932C32.1432 64.2071 32.3151 63.4254 32.5086 62.6489C35.4007 63.2886 38.6021 63.7489 42.0238 64.0264C43.9772 66.7753 46.0231 69.3021 48.0848 71.5148C47.6467 71.9387 47.1981 72.3517 46.7396 72.7535C44 75.1484 41.2548 76.8471 38.8355 77.7017H38.8352ZM28.6503 58.4588C25.2074 57.282 22.364 55.7527 20.4151 54.084C18.6639 52.584 17.7795 51.095 17.7795 49.8867C17.7795 47.3158 21.6128 44.0363 28.006 41.8073C28.8084 41.5288 29.6188 41.2738 30.4362 41.0427C31.3199 43.9166 32.4789 46.9215 33.8776 49.9601C32.4608 53.044 31.2852 56.0967 30.3934 59.0044C29.808 58.8368 29.2268 58.6549 28.6503 58.4588ZM32.0646 35.2192C30.7374 28.4373 31.6187 23.3215 33.8364 22.0378C36.1988 20.6704 41.422 22.6203 46.9274 27.5085C47.2792 27.821 47.6327 28.1482 47.9867 28.4866C45.9356 30.6893 43.9085 33.1971 41.972 35.9301C38.6512 36.2379 35.4722 36.7322 32.5499 37.3944C32.3698 36.6734 32.208 35.948 32.0646 35.2188V35.2192ZM62.5217 42.7398C61.8315 41.5475 61.1156 40.3701 60.3746 39.2087C62.6277 39.493 64.786 39.8711 66.8128 40.3339C66.2044 42.2842 65.446 44.3235 64.5529 46.414C63.9004 45.1758 63.2232 43.9509 62.5217 42.7398ZM50.1013 30.6422C51.4925 32.1493 52.8859 33.8323 54.2565 35.6582C51.4763 35.5268 48.6914 35.5262 45.9112 35.6563C47.283 33.8473 48.6882 32.1668 50.1013 30.6422ZM37.6012 42.7604C36.9086 43.9619 36.244 45.1793 35.6082 46.4118C34.7298 44.3285 33.9782 42.2801 33.3645 40.3021C35.3791 39.8511 37.5275 39.4827 39.7658 39.203C39.0165 40.3717 38.2948 41.5578 37.6012 42.7604ZM39.8302 60.7856C37.5178 60.5274 35.3369 60.1778 33.323 59.7394C33.9464 57.7263 34.7145 55.6339 35.6116 53.5059C36.2501 54.7393 36.9176 55.9575 37.6134 57.1595C38.3234 58.3856 39.0625 59.5947 39.8302 60.7856ZM50.1847 69.3443C48.7551 67.8015 47.3292 66.0953 45.9365 64.2601C47.2883 64.3132 48.6667 64.3401 50.0676 64.3401C51.5069 64.3401 52.9296 64.3079 54.3299 64.2454C52.9549 66.1141 51.5666 67.8228 50.1847 69.3443ZM64.5816 53.3974C65.5254 55.5486 66.3209 57.6298 66.9528 59.6087C64.9054 60.0759 62.6952 60.4521 60.3662 60.7315C61.1125 59.5483 61.8352 58.3504 62.5339 57.1385C63.2442 55.9068 63.9269 54.6595 64.5816 53.3974ZM59.9209 55.6317C58.8513 57.4897 57.7216 59.3125 56.5335 61.0971C54.4386 61.2468 52.2737 61.324 50.0676 61.324C47.8705 61.324 45.7331 61.2555 43.6747 61.1221C42.4558 59.3417 41.3047 57.5157 40.2239 55.6483C39.1481 53.7907 38.1433 51.893 37.2115 49.9591C38.1409 48.0247 39.1427 46.126 40.2149 44.2669V44.2675C41.2866 42.408 42.4287 40.5899 43.6385 38.8171C45.7384 38.6584 47.8914 38.5753 50.0679 38.5753C52.254 38.5753 54.4099 38.659 56.5092 38.819C57.7067 40.5891 58.8414 42.4008 59.9112 44.251C60.987 46.1059 62.0022 47.9954 62.9552 49.9163C62.012 51.8569 61.0001 53.7632 59.9212 55.6317H59.9209ZM66.1435 21.9482C68.5077 23.3118 69.4274 28.8107 67.9418 36.0219C67.8445 36.4917 67.7386 36.9597 67.6243 37.4256C64.6951 36.7497 61.514 36.2466 58.1835 35.9341C56.2432 33.1714 54.233 30.6593 52.215 28.4851C52.7438 27.9753 53.2852 27.4787 53.8387 26.9958C59.0516 22.4591 63.9235 20.6679 66.1435 21.9482Z" fill="white"/>
<path d="M50.0673 43.5815C53.5496 43.5815 56.3723 46.4046 56.3723 49.8866C56.3723 53.369 53.5496 56.192 50.0673 56.192C46.5852 56.192 43.7622 53.369 43.7622 49.8866C43.7622 46.4046 46.5852 43.5815 50.0673 43.5815Z" fill="#53C1DE"/>
</g>
<defs>
<clipPath id="clip0">
<rect width="80" height="71.872" fill="white" transform="translate(10 14)"/>
</clipPath>
</defs>
</svg>
