<svg width="100" height="100" viewBox="0 0 100 100" fill="none" xmlns="http://www.w3.org/2000/svg">
<rect width="100" height="100" rx="23" fill="#53C1DE"/>
<g clip-path="url(#clip0)">
<path d="M20.1768 41.8934C20.1768 46.3967 24.5742 50.6006 31.5067 52.9702C30.1223 59.9396 31.2587 65.5571 35.054 67.7458C38.955 69.9957 44.7668 68.4384 50.2831 63.6163C55.6601 68.2436 61.0943 70.0646 64.8864 67.8695C68.7839 65.6133 69.9691 59.615 68.5465 52.4279C75.7673 50.0407 79.8063 46.456 79.8063 41.8934C79.8063 37.4946 75.4009 33.6892 68.5617 31.3348C70.0933 23.8508 68.7956 18.3697 64.843 16.0905C61.0325 13.8931 55.535 15.8083 50.0789 20.5565C44.4026 15.5167 38.9595 13.9781 35.0111 16.2637C31.2041 18.4674 30.1178 24.1871 31.5067 31.2853C24.808 33.6208 20.1768 37.5124 20.1768 41.8934Z" fill="white"/>
<path d="M67.1133 33.6728C66.5497 33.4795 65.9813 33.3004 65.4086 33.1357C65.5036 32.7498 65.5914 32.3622 65.672 31.973C66.9624 25.7089 66.1187 20.6625 63.2374 19.0014C60.475 17.4081 55.9569 19.0693 51.3938 23.0402C50.9441 23.4323 50.5045 23.8358 50.0752 24.2502C49.7878 23.9747 49.4952 23.7045 49.1978 23.4398C44.4155 19.1935 39.6221 17.4044 36.7438 19.0705C33.984 20.6682 33.1665 25.4124 34.3282 31.3489C34.4438 31.9368 34.5743 32.5216 34.7196 33.1029C34.0414 33.2955 33.3863 33.5008 32.7596 33.7193C27.1531 35.6739 23.5725 38.7375 23.5725 41.915C23.5725 45.197 27.4161 48.4889 33.256 50.4848C33.7295 50.6459 34.207 50.7951 34.688 50.9324C34.5317 51.5586 34.393 52.1891 34.272 52.823C33.1644 58.6564 34.0294 63.2882 36.782 64.876C39.6251 66.5154 44.3968 64.8303 49.0433 60.7687C49.4106 60.4476 49.7792 60.1071 50.1484 59.7502C50.6133 60.1988 51.0906 60.6343 51.5799 61.0563C56.0806 64.9292 60.5256 66.4931 63.2759 64.901C66.1164 63.2567 67.0393 58.2809 65.8407 52.2271C65.7493 51.7647 65.6427 51.2924 65.5232 50.8115C65.8583 50.7126 66.1871 50.6104 66.508 50.504C72.579 48.4927 76.5287 45.2409 76.5287 41.915C76.5287 38.726 72.8328 35.6418 67.1133 33.6728Z" fill="#53C1DE"/>
<path d="M65.7963 48.3567C65.5069 48.4526 65.2097 48.5452 64.9069 48.6349C64.2366 46.5132 63.332 44.257 62.2253 41.9262C63.2816 39.6506 64.1511 37.4234 64.8026 35.3153C65.3442 35.4723 65.8701 35.6375 66.3768 35.8121C71.2774 37.4988 74.2665 39.9932 74.2665 41.915C74.2665 43.9622 71.0381 46.6199 65.7966 48.3567H65.7963ZM63.6214 52.6665C64.1513 55.3434 64.227 57.7637 63.8759 59.6557C63.5605 61.3558 62.9263 62.4892 62.1421 62.9431C60.4732 63.9092 56.904 62.6535 53.0553 59.3414C52.614 58.9618 52.1694 58.5563 51.7236 58.1274C53.2158 56.4953 54.7071 54.5979 56.1625 52.4909C58.7227 52.2638 61.1414 51.8924 63.3348 51.3854C63.4426 51.8214 63.5387 52.2486 63.6214 52.6665ZM41.6262 62.7763C39.9958 63.3521 38.6971 63.3685 37.9122 62.916C36.2417 61.9527 35.5475 58.2334 36.4946 53.2449C36.6072 52.6554 36.7361 52.0691 36.8813 51.4867C39.0503 51.9664 41.4514 52.3117 44.0177 52.5198C45.4827 54.5815 47.0171 56.4766 48.5634 58.1361C48.2348 58.454 47.8984 58.7638 47.5545 59.0651C45.4998 60.8613 43.4409 62.1353 41.6265 62.7763H41.6262ZM33.9876 48.3441C31.4053 47.4615 29.2728 46.3145 27.8111 45.063C26.4977 43.938 25.8345 42.8213 25.8345 41.915C25.8345 39.9869 28.7094 37.5272 33.5043 35.8555C34.1061 35.6466 34.7139 35.4553 35.327 35.282C35.9898 37.4374 36.859 39.6911 37.908 41.9701C36.8454 44.283 35.9637 46.5725 35.2949 48.7533C34.8558 48.6276 34.4199 48.4912 33.9876 48.3441ZM36.5482 30.9144C35.5529 25.8279 36.2138 21.9912 37.8771 21.0284C39.6489 20.0028 43.5663 21.4652 47.6954 25.1314C47.9592 25.3658 48.2243 25.6112 48.4899 25.865C46.9515 27.517 45.4312 29.3978 43.9788 31.4475C41.4882 31.6784 39.104 32.0492 36.9122 32.5458C36.7772 32.005 36.6558 31.461 36.5482 30.9141V30.9144ZM59.3911 36.5548C58.8734 35.6606 58.3365 34.7776 57.7808 33.9065C59.4706 34.1198 61.0893 34.4034 62.6094 34.7505C62.1531 36.2131 61.5843 37.7426 60.9145 39.3105C60.4251 38.3819 59.9172 37.4632 59.3911 36.5548ZM50.0758 27.4816C51.1192 28.612 52.1642 29.8743 53.1922 31.2436C51.107 31.1451 49.0184 31.1446 46.9332 31.2422C47.9621 29.8855 49.016 28.6251 50.0758 27.4816ZM40.7007 36.5703C40.1812 37.4714 39.6828 38.3845 39.2059 39.3088C38.5471 37.7463 37.9835 36.2101 37.5232 34.7265C39.0342 34.3884 40.6454 34.112 42.3242 33.9023C41.7622 34.7788 41.2209 35.6684 40.7007 36.5703ZM42.3725 50.0892C40.6382 49.8956 39.0025 49.6333 37.492 49.3045C37.9596 47.7947 38.5357 46.2254 39.2085 44.6294C39.6874 45.5544 40.188 46.4681 40.7099 47.3696C41.2424 48.2892 41.7967 49.196 42.3725 50.0892ZM50.1384 56.5082C49.0662 55.3511 47.9967 54.0715 46.9522 52.6951C47.966 52.7349 48.9998 52.7551 50.0505 52.7551C51.13 52.7551 52.197 52.7309 53.2472 52.6841C52.216 54.0856 51.1747 55.3671 50.1384 56.5082ZM60.9361 44.5481C61.6438 46.1614 62.2405 47.7223 62.7144 49.2066C61.1789 49.5569 59.5212 49.8391 57.7745 50.0486C58.3342 49.1613 58.8763 48.2628 59.4003 47.3539C59.9329 46.4301 60.445 45.4946 60.9361 44.5481ZM57.4405 46.2238C56.6383 47.6173 55.791 48.9844 54.9 50.3228C53.3288 50.4351 51.7051 50.493 50.0505 50.493C48.4027 50.493 46.7996 50.4417 45.2558 50.3416C44.3417 49.0062 43.4784 47.6368 42.6678 46.2362C41.8609 44.843 41.1073 43.4197 40.4085 41.9694C41.1055 40.5186 41.8569 39.0945 42.661 37.7002V37.7006C43.4648 36.306 44.3213 34.9424 45.2287 33.6128C46.8036 33.4938 48.4184 33.4314 50.0507 33.4314C51.6903 33.4314 53.3072 33.4943 54.8817 33.6143C55.7799 34.9418 56.6309 36.3006 57.4332 37.6882C58.2401 39.0794 59.0015 40.4965 59.7162 41.9373C59.0088 43.3927 58.2499 44.8224 57.4407 46.2238H57.4405ZM62.1074 20.9611C63.8806 21.9839 64.5704 26.108 63.4562 31.5164C63.3832 31.8688 63.3038 32.2198 63.2181 32.5692C61.0211 32.0623 58.6353 31.685 56.1374 31.4506C54.6822 29.3786 53.1746 27.4945 51.661 25.8638C52.0577 25.4814 52.4637 25.109 52.8788 24.7468C56.7885 21.3443 60.4425 20.0009 62.1074 20.9611Z" fill="white"/>
<path d="M50.0506 37.1862C52.6623 37.1862 54.7794 39.3034 54.7794 41.915C54.7794 44.5267 52.6623 46.644 50.0506 46.644C47.439 46.644 45.3218 44.5267 45.3218 41.915C45.3218 39.3034 47.439 37.1862 50.0506 37.1862Z" fill="#53C1DE"/>
</g>
<path d="M36.4559 75.504V83.904H34.8599L30.6719 78.804V83.904H28.7519V75.504H30.3599L34.5359 80.604V75.504H36.4559ZM40.9153 77.352C41.9153 77.352 42.6833 77.592 43.2193 78.072C43.7553 78.544 44.0233 79.26 44.0233 80.22V83.904H42.2713V83.1C41.9193 83.7 41.2633 84 40.3033 84C39.8073 84 39.3753 83.916 39.0073 83.748C38.6473 83.58 38.3713 83.348 38.1793 83.052C37.9873 82.756 37.8913 82.42 37.8913 82.044C37.8913 81.444 38.1153 80.972 38.5633 80.628C39.0193 80.284 39.7193 80.112 40.6633 80.112H42.1513C42.1513 79.704 42.0273 79.392 41.7793 79.176C41.5313 78.952 41.1593 78.84 40.6633 78.84C40.3193 78.84 39.9793 78.896 39.6433 79.008C39.3153 79.112 39.0353 79.256 38.8033 79.44L38.1313 78.132C38.4833 77.884 38.9033 77.692 39.3913 77.556C39.8873 77.42 40.3953 77.352 40.9153 77.352ZM40.7713 82.74C41.0913 82.74 41.3753 82.668 41.6233 82.524C41.8713 82.372 42.0473 82.152 42.1513 81.864V81.204H40.8673C40.0993 81.204 39.7153 81.456 39.7153 81.96C39.7153 82.2 39.8073 82.392 39.9913 82.536C40.1833 82.672 40.4433 82.74 40.7713 82.74ZM49.8815 83.592C49.6975 83.728 49.4695 83.832 49.1975 83.904C48.9335 83.968 48.6535 84 48.3575 84C47.5895 84 46.9935 83.804 46.5695 83.412C46.1535 83.02 45.9455 82.444 45.9455 81.684V79.032H44.9495V77.592H45.9455V76.02H47.8175V77.592H49.4255V79.032H47.8175V81.66C47.8175 81.932 47.8855 82.144 48.0215 82.296C48.1655 82.44 48.3655 82.512 48.6215 82.512C48.9175 82.512 49.1695 82.432 49.3775 82.272L49.8815 83.592ZM50.9324 77.448H52.8044V83.904H50.9324V77.448ZM51.8684 76.548C51.5244 76.548 51.2444 76.448 51.0284 76.248C50.8124 76.048 50.7044 75.8 50.7044 75.504C50.7044 75.208 50.8124 74.96 51.0284 74.76C51.2444 74.56 51.5244 74.46 51.8684 74.46C52.2124 74.46 52.4924 74.556 52.7084 74.748C52.9244 74.94 53.0324 75.18 53.0324 75.468C53.0324 75.78 52.9244 76.04 52.7084 76.248C52.4924 76.448 52.2124 76.548 51.8684 76.548ZM60.9497 77.448L58.2257 83.904H56.2937L53.5817 77.448H55.5137L57.3017 81.84L59.1497 77.448H60.9497ZM67.8618 80.7C67.8618 80.724 67.8498 80.892 67.8258 81.204H62.9418C63.0298 81.604 63.2378 81.92 63.5658 82.152C63.8938 82.384 64.3018 82.5 64.7898 82.5C65.1258 82.5 65.4218 82.452 65.6778 82.356C65.9418 82.252 66.1858 82.092 66.4098 81.876L67.4058 82.956C66.7978 83.652 65.9098 84 64.7418 84C64.0138 84 63.3698 83.86 62.8098 83.58C62.2498 83.292 61.8178 82.896 61.5138 82.392C61.2098 81.888 61.0578 81.316 61.0578 80.676C61.0578 80.044 61.2058 79.476 61.5018 78.972C61.8058 78.46 62.2178 78.064 62.7378 77.784C63.2658 77.496 63.8538 77.352 64.5018 77.352C65.1338 77.352 65.7058 77.488 66.2178 77.76C66.7298 78.032 67.1298 78.424 67.4178 78.936C67.7138 79.44 67.8618 80.028 67.8618 80.7ZM64.5138 78.768C64.0898 78.768 63.7338 78.888 63.4458 79.128C63.1578 79.368 62.9818 79.696 62.9178 80.112H66.0978C66.0338 79.704 65.8578 79.38 65.5698 79.14C65.2818 78.892 64.9298 78.768 64.5138 78.768Z" fill="white"/>
<defs>
<clipPath id="clip0">
<rect width="60" height="53.904" fill="white" transform="translate(20 15)"/>
</clipPath>
</defs>
</svg>
