<svg width="100" height="100" viewBox="0 0 100 100" fill="none" xmlns="http://www.w3.org/2000/svg">
<g clip-path="url(#clip0)">
<rect width="100" height="100" rx="23" fill="#C6538C"/>
<rect x="8" y="9" width="84" height="83" rx="25" fill="white"/>
<path d="M44.002 0.290413C23.0903 2.87627 6.22606 17.9417 1.27921 38.3474C-0.463427 45.3742 -0.407213 54.9306 1.33543 61.845C6.0012 80.4519 19.5488 93.9433 38.2119 98.7215C45.1825 100.464 54.7389 100.464 61.7095 98.7215C89.4231 91.6385 105.444 64.5432 98.3049 36.7734C94.7072 23.0009 84.1951 10.6338 70.8162 4.50648C63.1148 0.964981 52.2655 -0.721443 44.002 0.290413ZM56.0318 19.347C63.7332 23.1134 63.958 31.9952 56.4815 39.5841C51.5347 44.6996 45.7446 46.9482 37.8184 46.9482C33.0964 46.9482 29.836 45.5428 28.3745 42.9008C27.1377 40.7646 27.8685 40.4836 30.2857 42.17C33.8834 44.5872 41.1351 43.9688 47.4311 40.7646C54.6265 37.1107 59.1798 28.9034 55.8632 25.5868C54.1206 23.8442 52.2655 23.3382 47.5435 23.3382C38.8865 23.3382 28.1496 27.8916 20.7293 34.6373C16.963 38.1226 15.389 40.9333 15.389 44.2499C15.389 47.3979 16.6819 49.4778 20.7855 52.8507C22.6406 54.3685 25.0016 56.4484 26.1259 57.5165L28.1496 59.3715L32.0284 57.2916C34.1645 56.1673 36.919 54.256 38.1557 53.1318C40.7978 50.6021 42.3718 49.7589 44.1706 49.7589C46.0257 49.7589 46.8689 50.7708 46.8689 53.0193C46.8689 54.0312 47.0938 54.762 47.3748 54.5933C47.5997 54.4247 48.2743 54.6495 48.8364 55.043C49.7921 55.7176 49.7921 55.9987 48.5553 60.9455C47.8808 63.7562 47.4311 66.2297 47.5435 66.3983C47.8808 66.7356 54.4016 52.401 55.3573 49.253C55.9194 47.2855 56.3129 46.892 57.8869 46.6109C60.8663 46.0488 61.6533 46.6109 61.0911 48.747C60.529 51.108 60.6414 54.9306 61.316 56.1111C61.7095 56.8981 62.2154 56.2797 63.9018 53.1318C65.0823 50.9956 66.3753 48.1287 66.7125 46.8358C67.4433 44.4748 67.4995 44.4186 70.1416 44.2499L72.8399 44.0813L72.3902 46.4985C71.828 49.534 71.9405 51.8388 72.7837 53.8625C73.3458 55.0993 73.7393 55.3803 74.6387 55.0993C77.8992 54.1998 81.7217 53.8625 84.1389 54.3123C87.4556 54.9306 88.2988 55.3803 90.6598 57.8537C92.1213 59.3715 92.6273 60.3834 92.7959 62.5195C93.077 64.8805 92.8521 65.4989 91.5592 67.0729C90.716 68.0847 89.5917 68.8717 88.9734 68.8717C87.568 68.8717 87.6242 68.422 89.3106 67.0729C91.503 65.3302 91.2781 62.1822 88.8047 59.9899C86.3313 57.8537 81.6093 56.7295 77.8992 57.4602C75.2571 57.9662 75.2571 57.9662 75.4257 60.0461C75.7068 63.7 73.2896 66.7356 68.9049 68.1972C67.3309 68.7593 66.9374 68.7031 65.9255 67.6912C65.1385 66.9042 64.9137 66.1734 65.1947 65.3302C65.8131 63.3065 66.9936 61.2266 68.5114 59.4277C69.9167 57.7413 69.9167 57.6289 69.0735 55.9987C68.6238 55.043 68.2303 53.7501 68.1741 53.0193C68.1741 51.5578 68.2303 51.4453 65.1385 56.7295C63.2835 59.765 63.2273 60.1585 63.7894 62.126C64.3515 63.9249 64.2953 64.5994 63.3959 66.3983C62.0468 69.0966 58.7301 71.1203 55.5259 71.1203C51.6471 71.1203 51.8158 69.996 56.6502 64.1497C58.7863 61.5639 58.8425 61.339 58.168 59.6526C57.7745 58.697 57.2685 57.123 56.9875 56.2235L56.594 54.5371L55.5821 56.7857C52.1531 64.7681 48.3305 71.4576 46.7565 72.3008C45.1263 73.2002 43.4961 71.5138 43.4961 68.9279L43.4399 66.9042L42.0345 69.5463C41.3037 71.0079 40.0108 72.6381 39.2238 73.144C37.8746 74.0434 37.706 74.0434 36.3569 72.9754C35.5137 72.4132 34.558 71.0079 34.1645 69.9398C33.3213 67.5788 33.2089 62.6882 33.9397 60.7207L34.5018 59.3153L32.3094 60.552C30.2857 61.7325 30.1733 61.9012 30.7354 63.4189C31.5224 65.7237 30.9041 71.0641 29.555 73.7624C28.2058 76.3482 25.0016 79.3276 22.3595 80.4519C20.4483 81.2388 15.6138 81.5199 13.9836 80.9016C11.6226 79.9459 10.6108 74.4369 12.241 71.2327C13.4215 68.9279 18.031 64.9367 21.7974 62.913L24.9454 61.2266L19.5488 57.3478C9.1492 49.8151 6.73199 45.0931 9.87998 38.5723C11.5664 35.0308 18.7618 27.9478 23.6525 25.0809C32.8154 19.6843 39.28 17.7168 47.4311 17.8855C52.3217 17.9979 53.7833 18.2227 56.0318 19.347Z" fill="#C6538C"/>
<path d="M40.7415 56.2798C38.7178 59.4278 37.6497 63.7 38.1557 66.4545C38.4367 68.141 38.6616 68.3658 39.28 67.6912C40.0107 66.848 42.9901 59.4278 43.9457 55.7738C44.4517 53.9188 44.4517 53.6939 43.4398 53.6939C42.7652 53.6939 41.7534 54.6495 40.7415 56.2798Z" fill="#C6538C"/>
<path d="M69.3546 62.7444C68.68 64.0373 68.2865 65.1616 68.3989 65.274C68.9049 65.78 70.9848 63.4752 71.3783 61.9574C71.9404 59.6526 70.7037 60.1023 69.3546 62.7444Z" fill="#C6538C"/>
<path d="M23.9897 65.3302C22.4157 66.3983 20.1672 68.2533 19.0429 69.49C17.3565 71.3451 17.0192 72.1321 17.1878 73.8185C17.4127 76.4606 18.9305 76.7979 22.1909 74.9428C25.4513 73.144 27.3064 69.7711 27.0815 66.1734L26.9129 63.3627L23.9897 65.3302Z" fill="#C6538C"/>
<path d="M57.8307 66.5107C56.4254 68.1971 56.3692 68.3658 57.381 67.8036C58.5615 67.2415 60.1355 65.0491 59.6858 64.7118C59.5734 64.5994 58.7864 65.4426 57.8307 66.5107Z" fill="#C6538C"/>
</g>
<defs>
<clipPath id="clip0">
<rect width="100" height="100" rx="23" fill="white"/>
</clipPath>
</defs>
</svg>
