<svg width="100" height="100" viewBox="0 0 100 100" fill="none" xmlns="http://www.w3.org/2000/svg">
<rect width="100" height="100" rx="23" fill="#F05039"/>
<rect x="9" y="12" width="81" height="77" fill="white"/>
<path d="M19.2155 0.26075C10.0642 1.43948 3.49302 7.08057 0.872605 16.0053C-0.0949333 19.2468 -0.336818 76.9206 0.550092 81.5092C1.47732 86.0137 3.21082 89.5499 6.03281 92.623C8.89511 95.7382 11.959 97.5905 16.3935 98.8535C19.4574 99.7375 20.3846 99.7796 47.1129 99.948C75.9374 100.116 80.251 99.948 85.1694 98.3483C88.6364 97.2116 93.4741 93.8438 95.2479 91.2759C97.4652 88.1186 98.7955 84.9612 99.4002 81.5513C100.207 76.668 100.207 22.2778 99.3599 18.1523C97.6264 9.48013 92.1034 3.46017 83.5568 1.01851C80.4929 0.13446 79.7673 0.0923615 51.1846 0.00816345C35.0993 -0.0339355 20.7071 0.0923615 19.2155 0.26075ZM59.9731 16.342C74.728 27.0349 83.194 45.0106 80.0092 59.1133L79.4044 61.7233L80.8154 63.744C84.1212 68.5431 86.3385 75.9523 85.6128 79.7832C85.4112 80.8357 85.0484 81.7197 84.8065 81.7197C84.5647 81.7197 83.7181 80.8778 82.9521 79.8253C81.1783 77.3837 78.7997 75.9944 75.8165 75.7418C72.8332 75.4472 70.0516 76.1207 65.6573 78.1414C60.6181 80.4989 58.0783 81.0882 52.1924 81.3829C48.2013 81.5513 46.105 81.425 43.3233 80.9199C30.826 78.4782 19.7396 71.4479 11.7171 60.9235C10.5883 59.408 9.66108 58.0187 9.66108 57.8503C9.66108 57.6399 10.427 58.0187 11.3946 58.6923C15.7082 61.8075 22.8438 64.8807 28.6893 66.1015C32.2773 66.9013 39.8563 66.9855 43.3637 66.312C45.8228 65.8489 51.8296 63.6177 52.1521 63.0284C52.2731 62.86 50.2574 60.9235 47.6369 58.7344C41.4286 53.5143 32.5595 44.2107 25.3836 35.4123C18.5302 27.0349 16.7564 24.7195 16.9982 24.4248C17.1192 24.3406 18.5302 25.4351 20.1831 26.8665C24.3354 30.4869 33.3658 37.4751 39.6548 41.8953C46.3066 46.5261 46.3066 46.5682 45.5406 45.4736C45.2181 45.0527 43.8071 43.4108 42.4364 41.8111C37.3972 36.17 26.1899 21.5622 26.1899 20.6781C26.1899 20.5097 27.9637 22.0673 30.1406 24.1301C35.5427 29.3081 41.1061 34.1494 46.9113 38.6959C52.2328 42.8215 62.3113 49.936 62.8757 49.936C63.0772 49.936 63.561 48.8414 63.9641 47.4943C64.5285 45.642 64.6898 43.7055 64.6495 38.7801C64.6495 33.0548 64.5285 32.1287 63.5207 28.8872C62.2306 24.8037 60.0134 20.0466 57.8767 16.7209C55.6998 13.3952 55.8207 13.3531 59.9731 16.342Z" fill="#F05039"/>
</svg>
